# xmcd CD database file
# Generated: Mon Dec 30 14:33:29 2002 by KSCD
# 
# Track frame offsets:
#       150
#       26035
#       50179
#       73878
#       102742
#       123591
#       147391
#       170829
#       183306
#       204661
#       228882
#       267655
#
# Disc length: 3830 seconds
#
# Revision: 1
# Processed by: cddbd v1.4PL0 Copyright (c) Steve Scherf et al.
# Submitted via: Kscd 1.3.3
#
DISCID=c70ef40c
DTITLE=Big Al Carson - Take Your Drunken Ass Home
DYEAR=1900
DGENRE=
TTITLE0=Because I Got High
TTITLE1=Champagne and Reefer
TTITLE2=Nursery Rhymes
TTITLE3=Dip My Dipper
TTITLE4=Meet Me With Your Black Drawers On
TTITLE5=I'll Never Love Like That Again
TTITLE6=Baby's Love
TTITLE7=Everyday Dreamer
TTITLE8=Built For Comfort
TTITLE9=Strokin' (Club Version)
TTITLE10=Tell It Like It Is
TTITLE11=Take Your Drunken Ass Home
EXTD=
EXTT0=
EXTT1=
EXTT2=
EXTT3=
EXTT4=
EXTT5=
EXTT6=
EXTT7=
EXTT8=
EXTT9=
EXTT10=
EXTT11=
PLAYORDER=
